<svg xmlns="http://www.w3.org/2000/svg" viewBox="0 0 220 48" role="img" aria-label="TCS-style wordmark">
  <g fill="currentColor">
    <path d="M4 12h44v6H32v22h-6V18H4z"/>
    <path d="M82 11.2c-9 0-15.4 6.2-15.4 15s6.4 15 15.4 15c5.2 0 9.4-1.9 12.4-5.4l-4.4-4c-2 2-4.6 3.2-7.8 3.2-5.5 0-9.4-3.7-9.4-8.8s3.9-8.8 9.4-8.8c3 0 5.5 1 7.5 2.9l4.5-4C92 13 87.6 11.2 82 11.2z"/>
    <path d="M112.8 11.2c-7.2 0-12 3.6-12 8.9 0 11.4 17.7 7.8 17.7 13.6 0 1.9-1.9 3-5.5 3-3.7 0-7-1.4-9.5-3.7l-3.4 4.7c2.9 2.6 7.7 4.3 12.6 4.3 7.6 0 12.4-3.6 12.4-9.1 0-11.5-17.7-7.7-17.7-13.5 0-1.8 1.7-2.8 4.8-2.8 2.7 0 5.8.9 8.7 2.6l3-4.9c-3-1.9-7-3.1-11.1-3.1z"/>
  </g>
  <text x="138" y="32" font-family="Inter, system-ui, sans-serif" font-size="18" font-weight="700" fill="currentColor" letter-spacing="-0.02em">Consultancy</text>
</svg>
